HIERARCHY
ROOT Hips
{
  OFFSET 14.031 96.8003 -48.2971
  CHANNELS 6 Xposition Yposition Zposition Zrotation Xrotation Yrotation
  JOINT RightUpLeg
  {
    OFFSET -8.9458 -8.66707 0.101652
    CHANNELS 3 Zrotation Xrotation Yrotation
    JOINT RightLeg
    {
      OFFSET 0 -44.4227 1.3727
      CHANNELS 3 Zrotation Xrotation Yrotation
      JOINT RightFoot
      {
        OFFSET 0.253549 -42.0924 -1.46059
        CHANNELS 3 Zrotation Xrotation Yrotation
        JOINT RightToes
        {
          OFFSET 0.04 -4.41509 8.4991
          CHANNELS 3 Zrotation Xrotation Yrotation
          End Site
          {
            OFFSET -0.08 -0.137448 9.77979
          }
        }
      }
    }
  }
  JOINT Spine
  {
    OFFSET 0 11.8905 0
    CHANNELS 3 Zrotation Xrotation Yrotation
    JOINT Spine1
    {
      OFFSET 0 25.6574 0.127663
      CHANNELS 3 Zrotation Xrotation Yrotation
      JOINT RightShoulder
      {
        OFFSET -8.99 -0.362252 -0.22
        CHANNELS 3 Zrotation Xrotation Yrotation
        JOINT RightArm
        {
          OFFSET -10.2827 -0.00338 0.322123
          CHANNELS 3 Zrotation Xrotation Yrotation
          JOINT RightForeArm
          {
            OFFSET -32.8971 0.099144 -1.42434
            CHANNELS 3 Zrotation Xrotation Yrotation
            JOINT RightHand
            {
              OFFSET -27.4921 0.085362 1.02216
              CHANNELS 3 Zrotation Xrotation Yrotation
              End Site
              {
                OFFSET -16.6312 -0.6 1.50291
              }
            }
          }
        }
      }
      JOINT HEad
      {
        OFFSET 0 8.73416 0.011341
        CHANNELS 3 Zrotation Xrotation Yrotation
        End Site
        {
          OFFSET -0.29 12.7742 2.51395
        }
      }
      JOINT LeftShoulder1
      {
        OFFSET 8.99 -0.362252 -0.22
        CHANNELS 3 Zrotation Xrotation Yrotation
        JOINT LeftArm
        {
          OFFSET 10.2827 -0.00338 0.322123
          CHANNELS 3 Zrotation Xrotation Yrotation
          JOINT LeftForeArm
          {
            OFFSET 32.7669 0.099144 -1.42434
            CHANNELS 3 Zrotation Xrotation Yrotation
            JOINT LeftHand
            {
              OFFSET 27.5643 0.085362 1.02216
              CHANNELS 3 Zrotation Xrotation Yrotation
              End Site
              {
                OFFSET 16.7443 -0.6 1.50291
              }
            }
          }
        }
      }
    }
  }
  JOINT LeftUpLeg
  {
    OFFSET 8.9458 -8.66707 0.101652
    CHANNELS 3 Zrotation Xrotation Yrotation
    JOINT LeftLeg
    {
      OFFSET 0 -44.4227 1.3727
      CHANNELS 3 Zrotation Xrotation Yrotation
      JOINT LeftFoot
      {
        OFFSET -0.253549 -42.0924 -1.46059
        CHANNELS 3 Zrotation Xrotation Yrotation
        JOINT LeftToes
        {
          OFFSET -0.04 -4.41509 8.4991
          CHANNELS 3 Zrotation Xrotation Yrotation
          End Site
          {
            OFFSET 0.08 -0.047448 9.77979
          }
        }
      }
    }
  }
}
MOTION
Frames:	9
Frame Time:	0.0166667
-7.82833 88.9624 -56.4692 -8.27606 4.35599 -95.1637 -11.9545 -15.3642 10.52 -7.34124 36.5408 18.1655 26.7063 21.2287 -6.79806 -42.4129 -43.8486 17.1535 0.428499 12.7286 1.07445 2.46332 25.9003 1.74388 20.3063 5.5916 22.1764 46.6118 -25.9616 59.4998 23.8427 53.0688 110.075 -6.54008 11.0053 -26.1933 -3.37755 -26.5371 46.5008 2.4311e-032 3.50358e-015 -3.97569e-016 -6.71912 -49.4519 7.33103 -54.7349 -5.11996 -55.948 -25.5657 17.7799 -29.4176 31.5159 -10.121 -11.9122 -2.98401 31.423 16.6336 -9.73943 12.326 1.60478 -7.34936 -25.2523 -3.12768 
-6.91955 88.2973 -55.1098 -8.91746 5.35199 -94.2231 -11.7169 -16.3123 10.6242 -5.96355 39.275 16.1114 25.5432 20.64 -6.36248 -40.1485 -42.2251 19.204 1.47291 12.7348 -0.911083 3.74612 25.85 -2.27095 21.242 5.6665 21.6256 43.1752 -26.7197 59.9916 24.2617 52.764 109.938 -6.63869 10.9576 -24.9266 -3.19526 -25.0507 49.3799 3.97569e-016 3.42904e-015 -7.95139e-016 -7.12112 -38.5056 -1.29607 -60.6103 -38.213 -62.6998 -35.5895 19.6348 -25.6578 32.2567 -9.12488 -12.7025 -1.7194 27.7558 15.3898 -10.4819 12.3877 1.7398 -7.31838 -26.335 -1.01428 
-5.8526 87.5313 -53.9801 -9.86889 6.33355 -93.1892 -11.481 -17.1484 9.9784 -4.52965 42.5781 14.1424 24.0983 20.0212 -5.86388 -39.0186 -41.5386 20.7706 2.09469 12.9418 -2.64626 4.92582 26.16 -5.92027 21.1572 5.44088 20.7665 42.898 -28.2993 63.0375 24.5663 53.2487 109.855 -6.7919 10.9505 -24.2824 -2.37073 -24.0724 51.6706 7.95139e-016 -1.39149e-015 1.59028e-015 -3.2893 -28.6809 -8.05414 -91.7519 -68.4866 -93.8177 -48.6371 19.6532 -17.3585 33.632 -8.88456 -12.8091 -2.10496 26.2492 13.9677 -11.6086 12.2481 1.92435 -7.8289 -28.2826 -0.664873 
-4.66345 86.7467 -53.1226 -11.148 7.2616 -92.1825 -11.0535 -17.6532 8.97437 -3.27803 46.3305 12.1466 22.4415 19.3138 -5.31486 -38.9707 -41.7329 21.4955 2.29479 13.4161 -3.97991 5.9009 26.9651 -8.88336 20.4439 5.03461 19.667 45.4018 -30.3267 67.6063 24.4049 54.2697 110.593 -6.97979 11.0068 -24.7129 -0.689698 -23.8065 53.1962 -2.75869e-032 9.93923e-016 1.59028e-015 2.82339 -24.5804 -13.3501 -177.698 -71.5516 -179.192 -59.7124 16.5198 -7.32396 35.4898 -9.3116 -11.4784 -3.32591 26.6407 11.6635 -12.7109 12.2023 2.1121 -8.78956 -30.4428 -2.12763 
-3.4745 86.0269 -52.4638 -12.6041 7.94201 -91.2734 -10.6384 -17.777 8.23404 -1.6797 50.4597 9.34551 20.5426 18.2675 -4.6733 -39.308 -42.0789 21.4127 2.35882 14.079 -4.86913 6.57116 28.1439 -10.9493 19.5837 4.60824 18.5291 49.544 -32.4042 72.2646 23.8971 55.5558 112.374 -7.10045 11.1159 -26.2636 1.49051 -24.2201 53.7462 -3.18055e-015 1.98785e-015 -0 8.46498 -24.2481 -17.1237 166.725 -66.1461 171.93 -65.066 13.2482 -0.97546 37.2755 -10.1337 -8.39819 -4.26171 28.2484 8.03336 -13.623 12.6863 2.32576 -10.0731 -32.4198 -4.86125 
-2.46055 85.4739 -51.8626 -13.9116 8.18457 -90.589 -10.632 -17.5933 8.09195 1.15667 54.6595 4.91027 18.4747 16.8004 -3.96722 -39.3017 -41.8893 20.8853 2.55756 14.7086 -5.32371 6.88732 29.3081 -11.9779 19.0131 4.32013 17.7003 53.6006 -34.3287 75.5138 23.2145 56.7471 114.975 -7.02545 11.225 -28.4598 3.2288 -24.9948 53.1055 0 7.15625e-015 -0 12.2157 -23.6641 -19.0735 159.441 -70.1118 167.008 -65.1057 13.7421 -1.75332 38.3786 -11.0507 -4.50843 -4.37848 30.3188 3.88027 -14.3141 13.5023 2.54628 -11.3278 -33.835 -7.79463 
-1.7484 85.2041 -51.2302 -14.758 7.95558 -90.3456 -11.2226 -17.1906 8.36641 5.48303 58.4068 -1.1242 16.4891 15.1801 -3.31359 -38.681 -41.0252 20.3454 2.87587 15.0807 -5.31909 6.84303 30.0406 -11.868 19.1453 4.30423 17.52 55.7926 -36.0867 76.2427 22.4398 57.5158 117.892 -6.73763 11.2764 -30.5311 3.521 -25.545 51.1375 -2.38542e-015 8.74653e-015 -0 13.2354 -21.913 -19.5705 154.347 -80.4233 159.254 -58.7808 17.7417 -9.74191 38.5106 -11.7287 -1.56209 -4.17132 32.0566 1.01033 -14.7158 14.1285 2.69768 -12.1077 -34.4715 -9.78065 
-1.33358 85.2743 -50.5766 -15.0929 7.38547 -90.7529 -12.2276 -16.5839 8.64816 10.2826 61.3419 -7.48279 14.946 13.9262 -2.84713 -37.7449 -39.9021 20.0534 3.12895 15.1395 -4.80046 6.46824 30.2113 -10.5875 20.2442 4.59774 17.9455 55.1572 -37.5467 74.1607 21.836 57.7821 120.418 -6.37832 11.2566 -31.7535 2.08266 -25.2652 47.9804 -1.59028e-015 -3.57812e-015 4.77083e-015 10.9457 -20.5327 -19.6243 7.33036 -84.6991 4.42 -45.9213 19.9647 -19.4789 37.8215 -11.8369 -0.742955 -4.55577 32.9506 0.83128 -14.7906 14.2337 2.72498 -12.1529 -34.2922 -10.2163 
-1.10389 85.627 -49.9527 -15.1503 6.66904 -91.8613 -13.2753 -15.7079 8.6616 13.8645 63.5569 -12.2918 14.1487 13.4265 -2.63716 -36.9859 -39.0709 20.0792 3.24687 15.0091 -3.78909 5.8495 30.028 -8.26442 22.1308 5.07955 18.4955 52.1155 -38.2916 69.8424 21.7675 57.6789 121.947 -6.13366 11.2001 -31.7978 -0.387624 -23.9472 44.1974 1.59028e-015 -6.75868e-015 -0 5.3384 -22.2124 -20.2597 -20.0746 -66.6821 -30.7893 -33.2208 18.5517 -24.3064 36.7181 -11.1989 -1.90514 -5.88901 32.9281 3.2766 -14.5648 13.8324 2.63291 -11.5244 -33.3658 -9.24986 
